<svg viewBox="0 0 790 420" xmlns="http://www.w3.org/2000/svg" font-family="'Pretendard Variable', Pretendard, -apple-system, 'Segoe UI', 'Apple SD Gothic Neo', 'Malgun Gothic', 'Noto Sans KR', sans-serif">
<defs>
  <filter id="soft" x="-8%" y="-8%" width="116%" height="116%">
    <feDropShadow dx="0" dy="1.5" stdDeviation="2.2" flood-color="#000000" flood-opacity="0.10"/>
  </filter>
  <marker id="arrow" markerWidth="10" markerHeight="10" refX="7.5" refY="4" orient="auto">
    <path d="M0,0 L8,4 L0,8 Z" fill="#6b6258"/></marker>
  <marker id="arrowS" markerWidth="10" markerHeight="10" refX="0.5" refY="4" orient="auto">
    <path d="M8,0 L0,4 L8,8 Z" fill="#6b6258"/></marker>
  <marker id="aAllow" markerWidth="10" markerHeight="10" refX="7.5" refY="4" orient="auto">
    <path d="M0,0 L8,4 L0,8 Z" fill="#3f8e70"/></marker>
  <marker id="aDeny" markerWidth="10" markerHeight="10" refX="7.5" refY="4" orient="auto">
    <path d="M0,0 L8,4 L0,8 Z" fill="#c0584f"/></marker>
  <marker id="aTerra" markerWidth="10" markerHeight="10" refX="7.5" refY="4" orient="auto">
    <path d="M0,0 L8,4 L0,8 Z" fill="#da7756"/></marker>
</defs>
<rect x="13" y="13" width="764" height="394" rx="16" stroke="#e2dcd2" stroke-width="1.5" fill="#fcfbf9" filter="url(#soft)"/>
<text x="32" y="48" font-size="18.5" fill="#2b2722" font-weight="700" text-anchor="start">스모크 테스트 → 실증 대상 층</text>
<text x="32" y="68" font-size="12.5" fill="#6b6258" font-weight="normal" text-anchor="start">여섯 테스트가 트랙 A의 각 층을 되짚어, 세운 것이 실제로 동작함을 증명한다</text>
<text x="34" y="115.0" font-size="10.5" fill="#8a8076" font-weight="600" text-anchor="start">스모크 ＼ 층</text>
<rect x="210" y="84" width="132" height="54" rx="9" stroke="#e2dcd2" stroke-width="1" fill="#f1ede6"/>
<text x="276.0" y="105" font-size="12" fill="#da7756" font-weight="700" text-anchor="middle">a2·a4</text>
<text x="276.0" y="123" font-size="11" fill="#2b2722" font-weight="600" text-anchor="middle">저장 암호화</text>
<rect x="350" y="84" width="132" height="54" rx="9" stroke="#e2dcd2" stroke-width="1" fill="#f1ede6"/>
<text x="416.0" y="105" font-size="12" fill="#da7756" font-weight="700" text-anchor="middle">a4</text>
<text x="416.0" y="123" font-size="11" fill="#2b2722" font-weight="600" text-anchor="middle">스케줄·RBAC</text>
<rect x="490" y="84" width="132" height="54" rx="9" stroke="#e2dcd2" stroke-width="1" fill="#f1ede6"/>
<text x="556.0" y="105" font-size="12" fill="#da7756" font-weight="700" text-anchor="middle">a5</text>
<text x="556.0" y="123" font-size="11" fill="#2b2722" font-weight="600" text-anchor="middle">런타임·프록시</text>
<rect x="630" y="84" width="132" height="54" rx="9" stroke="#e2dcd2" stroke-width="1" fill="#f1ede6"/>
<text x="696.0" y="105" font-size="12" fill="#da7756" font-weight="700" text-anchor="middle">a6</text>
<text x="696.0" y="123" font-size="11" fill="#2b2722" font-weight="600" text-anchor="middle">파드 라우트</text>
<rect x="30" y="148" width="172" height="52" rx="9" stroke="#e2dcd2" stroke-width="1.2" fill="#fcfbf9"/>
<text x="42" y="170" font-size="12.5" fill="#2b2722" font-weight="700" text-anchor="start">저장 데이터</text>
<text x="42" y="188" font-size="12.5" fill="#2b2722" font-weight="700" text-anchor="start">암호화</text>
<rect x="210" y="148" width="132" height="52" rx="9" stroke="#cfe6da" stroke-width="1.3" fill="#e8f3ee"/>
<text x="276.0" y="178.0" font-size="10.5" fill="#3f8e70" font-weight="600" text-anchor="middle">aescbc</text>
<rect x="350" y="148" width="132" height="52" rx="9" stroke="#e2dcd2" stroke-width="0.8" fill="#f7f4ef"/>
<text x="416.0" y="179.0" font-size="15" fill="#8a8076" font-weight="400" text-anchor="middle">·</text>
<rect x="490" y="148" width="132" height="52" rx="9" stroke="#e2dcd2" stroke-width="0.8" fill="#f7f4ef"/>
<text x="556.0" y="179.0" font-size="15" fill="#8a8076" font-weight="400" text-anchor="middle">·</text>
<rect x="630" y="148" width="132" height="52" rx="9" stroke="#e2dcd2" stroke-width="0.8" fill="#f7f4ef"/>
<text x="696.0" y="179.0" font-size="15" fill="#8a8076" font-weight="400" text-anchor="middle">·</text>
<rect x="30" y="208" width="172" height="52" rx="9" stroke="#e2dcd2" stroke-width="1.2" fill="#fcfbf9"/>
<text x="42" y="230" font-size="12.5" fill="#2b2722" font-weight="700" text-anchor="start">nginx</text>
<text x="42" y="248" font-size="12.5" fill="#2b2722" font-weight="700" text-anchor="start">디플로이</text>
<rect x="210" y="208" width="132" height="52" rx="9" stroke="#e2dcd2" stroke-width="0.8" fill="#f7f4ef"/>
<text x="276.0" y="239.0" font-size="15" fill="#8a8076" font-weight="400" text-anchor="middle">·</text>
<rect x="350" y="208" width="132" height="52" rx="9" stroke="#cfe6da" stroke-width="1.3" fill="#e8f3ee"/>
<text x="416.0" y="238.0" font-size="10.5" fill="#3f8e70" font-weight="600" text-anchor="middle">scheduler</text>
<rect x="490" y="208" width="132" height="52" rx="9" stroke="#cfe6da" stroke-width="1.3" fill="#e8f3ee"/>
<text x="556.0" y="238.0" font-size="10.5" fill="#3f8e70" font-weight="600" text-anchor="middle">kubelet·CNI</text>
<rect x="630" y="208" width="132" height="52" rx="9" stroke="#e2dcd2" stroke-width="0.8" fill="#f7f4ef"/>
<text x="696.0" y="239.0" font-size="15" fill="#8a8076" font-weight="400" text-anchor="middle">·</text>
<rect x="30" y="268" width="172" height="52" rx="9" stroke="#e2dcd2" stroke-width="1.2" fill="#fcfbf9"/>
<text x="42" y="290" font-size="12.5" fill="#2b2722" font-weight="700" text-anchor="start">포트포워드·로그</text>
<text x="42" y="308" font-size="12.5" fill="#2b2722" font-weight="700" text-anchor="start">exec</text>
<rect x="210" y="268" width="132" height="52" rx="9" stroke="#e2dcd2" stroke-width="0.8" fill="#f7f4ef"/>
<text x="276.0" y="299.0" font-size="15" fill="#8a8076" font-weight="400" text-anchor="middle">·</text>
<rect x="350" y="268" width="132" height="52" rx="9" stroke="#cfe6da" stroke-width="1.3" fill="#e8f3ee"/>
<text x="416.0" y="298.0" font-size="10.5" fill="#3f8e70" font-weight="600" text-anchor="middle">kubelet RBAC</text>
<rect x="490" y="268" width="132" height="52" rx="9" stroke="#e2dcd2" stroke-width="0.8" fill="#f7f4ef"/>
<text x="556.0" y="299.0" font-size="15" fill="#8a8076" font-weight="400" text-anchor="middle">·</text>
<rect x="630" y="268" width="132" height="52" rx="9" stroke="#e2dcd2" stroke-width="0.8" fill="#f7f4ef"/>
<text x="696.0" y="299.0" font-size="15" fill="#8a8076" font-weight="400" text-anchor="middle">·</text>
<rect x="30" y="328" width="172" height="52" rx="9" stroke="#e2dcd2" stroke-width="1.2" fill="#fcfbf9"/>
<text x="42" y="350" font-size="12.5" fill="#2b2722" font-weight="700" text-anchor="start">NodePort</text>
<text x="42" y="368" font-size="12.5" fill="#2b2722" font-weight="700" text-anchor="start">서비스</text>
<rect x="210" y="328" width="132" height="52" rx="9" stroke="#e2dcd2" stroke-width="0.8" fill="#f7f4ef"/>
<text x="276.0" y="359.0" font-size="15" fill="#8a8076" font-weight="400" text-anchor="middle">·</text>
<rect x="350" y="328" width="132" height="52" rx="9" stroke="#e2dcd2" stroke-width="0.8" fill="#f7f4ef"/>
<text x="416.0" y="359.0" font-size="15" fill="#8a8076" font-weight="400" text-anchor="middle">·</text>
<rect x="490" y="328" width="132" height="52" rx="9" stroke="#cfe6da" stroke-width="1.3" fill="#e8f3ee"/>
<text x="556.0" y="358.0" font-size="10.5" fill="#3f8e70" font-weight="600" text-anchor="middle">kube-proxy</text>
<rect x="630" y="328" width="132" height="52" rx="9" stroke="#cfe6da" stroke-width="1.3" fill="#e8f3ee"/>
<text x="696.0" y="358.0" font-size="10.5" fill="#3f8e70" font-weight="600" text-anchor="middle">L3 route</text>
<text x="32" y="402" font-size="10.5" fill="#8a8076" font-weight="normal" text-anchor="start">초록 칸 = 그 스모크가 통과로 실증하는 층      ·  = 해당 없음</text>
</svg>
