<svg viewBox="0 0 780 500" xmlns="http://www.w3.org/2000/svg" font-family="'Pretendard Variable', Pretendard, -apple-system, 'Segoe UI', 'Apple SD Gothic Neo', 'Malgun Gothic', 'Noto Sans KR', sans-serif">
<defs>
  <filter id="soft" x="-8%" y="-8%" width="116%" height="116%">
    <feDropShadow dx="0" dy="1.5" stdDeviation="2.2" flood-color="#000000" flood-opacity="0.10"/>
  </filter>
  <marker id="arrow" markerWidth="10" markerHeight="10" refX="7.5" refY="4" orient="auto">
    <path d="M0,0 L8,4 L0,8 Z" fill="#6b6258"/></marker>
  <marker id="arrowS" markerWidth="10" markerHeight="10" refX="0.5" refY="4" orient="auto">
    <path d="M8,0 L0,4 L8,8 Z" fill="#6b6258"/></marker>
  <marker id="aAllow" markerWidth="10" markerHeight="10" refX="7.5" refY="4" orient="auto">
    <path d="M0,0 L8,4 L0,8 Z" fill="#3f8e70"/></marker>
  <marker id="aDeny" markerWidth="10" markerHeight="10" refX="7.5" refY="4" orient="auto">
    <path d="M0,0 L8,4 L0,8 Z" fill="#c0584f"/></marker>
  <marker id="aTerra" markerWidth="10" markerHeight="10" refX="7.5" refY="4" orient="auto">
    <path d="M0,0 L8,4 L0,8 Z" fill="#da7756"/></marker>
</defs>
<rect x="13" y="13" width="754" height="474" rx="16" stroke="#e2dcd2" stroke-width="1.5" fill="#fcfbf9" filter="url(#soft)"/>
<text x="34" y="50" font-size="18.5" fill="#2b2722" font-weight="700" text-anchor="start">랩 네트워크 토폴로지</text>
<text x="34" y="70" font-size="12.5" fill="#6b6258" font-weight="normal" text-anchor="start">이중 NIC로 고정 클러스터망과 드리프트하는 NAT를 분리한다</text>
<rect x="325" y="78" width="120" height="28" rx="8" stroke="#e2dcd2" stroke-width="1" fill="#f1ede6"/>
<text x="385.0" y="96.0" font-size="11" fill="#6b6258" font-weight="600" text-anchor="middle">인터넷</text>
<line x1="385" y1="106" x2="385" y2="120" stroke="#8a8076" stroke-width="1.4" marker-end="url(#arrow)"/>
<rect x="58" y="120" width="654" height="30" rx="9" stroke="#8a8076" stroke-width="1.3" fill="#f1ede6"/>
<text x="385" y="139" font-size="11.5" fill="#6b6258" font-weight="600" text-anchor="middle">Default Switch · NAT · eth0 (드리프트)</text>
<line x1="144.0" y1="194" x2="144.0" y2="150" stroke="#8a8076" stroke-width="1.2" stroke-dasharray="3 3"/>
<line x1="144.0" y1="272" x2="144.0" y2="300" stroke="#4a9d7f" stroke-width="1.7"/>
<rect x="74.0" y="194" width="140" height="78" rx="9" stroke="#e2dcd2" stroke-width="1.3" fill="#fcfbf9"/>
<text x="144.0" y="215" font-size="12.5" fill="#2b2722" font-weight="700" text-anchor="middle">jumpbox</text>
<text x="144.0" y="231" font-size="9" fill="#8a8076" font-weight="normal" text-anchor="middle">관제소</text>
<text x="144.0" y="262" font-size="10.5" fill="#4a9d7f" font-weight="600" text-anchor="middle" font-family="'D2Coding', 'D2Coding ligature', 'DejaVu Sans Mono', monospace">10.240.0.5</text>
<line x1="308.0" y1="194" x2="308.0" y2="150" stroke="#8a8076" stroke-width="1.2" stroke-dasharray="3 3"/>
<line x1="308.0" y1="272" x2="308.0" y2="300" stroke="#4a9d7f" stroke-width="1.7"/>
<rect x="238.0" y="194" width="140" height="78" rx="9" stroke="#e2dcd2" stroke-width="1.3" fill="#fcfbf9"/>
<text x="308.0" y="215" font-size="12.5" fill="#2b2722" font-weight="700" text-anchor="middle">server</text>
<text x="308.0" y="231" font-size="9" fill="#8a8076" font-weight="normal" text-anchor="middle">컨트롤 플레인</text>
<text x="308.0" y="262" font-size="10.5" fill="#4a9d7f" font-weight="600" text-anchor="middle" font-family="'D2Coding', 'D2Coding ligature', 'DejaVu Sans Mono', monospace">10.240.0.10</text>
<line x1="472.0" y1="194" x2="472.0" y2="150" stroke="#8a8076" stroke-width="1.2" stroke-dasharray="3 3"/>
<line x1="472.0" y1="272" x2="472.0" y2="300" stroke="#4a9d7f" stroke-width="1.7"/>
<rect x="402.0" y="194" width="140" height="78" rx="9" stroke="#e2dcd2" stroke-width="1.3" fill="#fcfbf9"/>
<text x="472.0" y="215" font-size="12.5" fill="#2b2722" font-weight="700" text-anchor="middle">node-0</text>
<text x="472.0" y="231" font-size="9" fill="#8a8076" font-weight="normal" text-anchor="middle">워커</text>
<text x="472.0" y="245" font-size="8.5" fill="#8a8076" font-weight="normal" text-anchor="middle" font-family="'D2Coding', 'D2Coding ligature', 'DejaVu Sans Mono', monospace">pod 10.200.0.0/24</text>
<text x="472.0" y="262" font-size="10.5" fill="#4a9d7f" font-weight="600" text-anchor="middle" font-family="'D2Coding', 'D2Coding ligature', 'DejaVu Sans Mono', monospace">10.240.0.20</text>
<line x1="636.0" y1="194" x2="636.0" y2="150" stroke="#8a8076" stroke-width="1.2" stroke-dasharray="3 3"/>
<line x1="636.0" y1="272" x2="636.0" y2="300" stroke="#4a9d7f" stroke-width="1.7"/>
<rect x="566.0" y="194" width="140" height="78" rx="9" stroke="#e2dcd2" stroke-width="1.3" fill="#fcfbf9"/>
<text x="636.0" y="215" font-size="12.5" fill="#2b2722" font-weight="700" text-anchor="middle">node-1</text>
<text x="636.0" y="231" font-size="9" fill="#8a8076" font-weight="normal" text-anchor="middle">워커</text>
<text x="636.0" y="245" font-size="8.5" fill="#8a8076" font-weight="normal" text-anchor="middle" font-family="'D2Coding', 'D2Coding ligature', 'DejaVu Sans Mono', monospace">pod 10.200.1.0/24</text>
<text x="636.0" y="262" font-size="10.5" fill="#4a9d7f" font-weight="600" text-anchor="middle" font-family="'D2Coding', 'D2Coding ligature', 'DejaVu Sans Mono', monospace">10.240.0.21</text>
<text x="152.0" y="172" font-size="8" fill="#8a8076" font-weight="normal" text-anchor="start">eth0</text>
<text x="152.0" y="289" font-size="8" fill="#4a9d7f" font-weight="600" text-anchor="start">eth1</text>
<rect x="58" y="300" width="654" height="32" rx="9" stroke="#4a9d7f" stroke-width="1.4" fill="#e8f3ee"/>
<text x="385" y="320" font-size="11.5" fill="#2b2722" font-weight="600" text-anchor="middle">vSwitch "multipass" · internal · 10.240.0.0/24</text>
<line x1="181.0" y1="362" x2="181.0" y2="332" stroke="#4a9d7f" stroke-width="1.7"/>
<rect x="74" y="362" width="214" height="52" rx="9" stroke="#5b86c4" stroke-width="1.3" fill="#eaf0f9"/>
<text x="181.0" y="383" font-size="11.5" fill="#2b2722" font-weight="700" text-anchor="middle">Windows 11 호스트</text>
<text x="181.0" y="401" font-size="9.2" fill="#6b6258" font-weight="normal" text-anchor="middle" font-family="'D2Coding', 'D2Coding ligature', 'DejaVu Sans Mono', monospace">vEthernet (multipass) · 10.240.0.1</text>
<text x="300" y="382" font-size="9.3" fill="#6b6258" font-weight="normal" text-anchor="start">호스트→노드 접근 확인용.</text>
<text x="300" y="396" font-size="9.3" fill="#6b6258" font-weight="normal" text-anchor="start">게스트 인터넷은 eth0/NAT가 담당한다.</text>
<line x1="74" y1="444" x2="104" y2="444" stroke="#4a9d7f" stroke-width="2.2"/>
<text x="110" y="447.5" font-size="10" fill="#6b6258" font-weight="normal" text-anchor="start">eth1 · 고정 IP · 전용선 (재부팅 불변)</text>
<line x1="360" y1="444" x2="390" y2="444" stroke="#8a8076" stroke-width="1.6" stroke-dasharray="3 3"/>
<text x="396" y="447.5" font-size="10" fill="#6b6258" font-weight="normal" text-anchor="start">eth0 · NAT · 드리프트 (클러스터 미사용)</text>
<text x="74" y="472" font-size="9.5" fill="#da7756" font-weight="600" text-anchor="start">클러스터 배선(machines.txt · /etc/hosts · kubeconfig)은 전부 eth1 고정 IP를 쓴다.</text>
</svg>
